<mxfile host="app.diagrams.net" agent="Mozilla/5.0 (Windows NT 10.0; Win64; x64) AppleWebKit/537.36 (KHTML, like Gecko) Chrome/140.0.0.0 Safari/537.36" version="28.2.5">
  <diagram name="Página-1" id="28UFLxqXa47Nhzstd8XW">
    <mxGraphModel grid="1" page="1" gridSize="10" guides="1" tooltips="1" connect="1" arrows="1" fold="1" pageScale="1" pageWidth="827" pageHeight="1169" math="0" shadow="0">
      <root>
        <mxCell id="0" />
        <mxCell id="1" parent="0" />
        <mxCell id="aSBIJGF0lnvLBux2EHk--34" style="edgeStyle=orthogonalEdgeStyle;rounded=0;orthogonalLoop=1;jettySize=auto;html=1;exitX=1;exitY=0.5;exitDx=0;exitDy=0;entryX=0;entryY=0.5;entryDx=0;entryDy=0;endArrow=none;endFill=0;" edge="1" parent="1" source="aSBIJGF0lnvLBux2EHk--1" target="aSBIJGF0lnvLBux2EHk--17">
          <mxGeometry relative="1" as="geometry" />
        </mxCell>
        <mxCell id="aSBIJGF0lnvLBux2EHk--1" value="Usuario" style="rounded=0;whiteSpace=wrap;html=1;" vertex="1" parent="1">
          <mxGeometry x="240" y="450" width="120" height="60" as="geometry" />
        </mxCell>
        <mxCell id="aSBIJGF0lnvLBux2EHk--11" style="rounded=0;orthogonalLoop=1;jettySize=auto;html=1;exitX=1;exitY=1;exitDx=0;exitDy=0;endArrow=none;endFill=0;" edge="1" parent="1" source="aSBIJGF0lnvLBux2EHk--2">
          <mxGeometry relative="1" as="geometry">
            <mxPoint x="300" y="450" as="targetPoint" />
          </mxGeometry>
        </mxCell>
        <mxCell id="aSBIJGF0lnvLBux2EHk--2" value="Id_usuario" style="ellipse;whiteSpace=wrap;html=1;" vertex="1" parent="1">
          <mxGeometry x="140" y="330" width="100" height="60" as="geometry" />
        </mxCell>
        <mxCell id="aSBIJGF0lnvLBux2EHk--10" style="rounded=0;orthogonalLoop=1;jettySize=auto;html=1;exitX=0;exitY=1;exitDx=0;exitDy=0;entryX=0.5;entryY=0;entryDx=0;entryDy=0;endArrow=none;endFill=0;" edge="1" parent="1" source="aSBIJGF0lnvLBux2EHk--3" target="aSBIJGF0lnvLBux2EHk--1">
          <mxGeometry relative="1" as="geometry" />
        </mxCell>
        <mxCell id="aSBIJGF0lnvLBux2EHk--3" value="Género" style="ellipse;whiteSpace=wrap;html=1;" vertex="1" parent="1">
          <mxGeometry x="360" y="330" width="100" height="60" as="geometry" />
        </mxCell>
        <mxCell id="aSBIJGF0lnvLBux2EHk--13" style="rounded=0;orthogonalLoop=1;jettySize=auto;html=1;exitX=1;exitY=1;exitDx=0;exitDy=0;entryX=0.5;entryY=0;entryDx=0;entryDy=0;endArrow=none;endFill=0;" edge="1" parent="1" source="aSBIJGF0lnvLBux2EHk--4" target="aSBIJGF0lnvLBux2EHk--1">
          <mxGeometry relative="1" as="geometry" />
        </mxCell>
        <mxCell id="aSBIJGF0lnvLBux2EHk--4" value="Edad" style="ellipse;whiteSpace=wrap;html=1;" vertex="1" parent="1">
          <mxGeometry x="180" y="210" width="100" height="60" as="geometry" />
        </mxCell>
        <mxCell id="aSBIJGF0lnvLBux2EHk--12" style="rounded=0;orthogonalLoop=1;jettySize=auto;html=1;exitX=0;exitY=1;exitDx=0;exitDy=0;endArrow=none;endFill=0;" edge="1" parent="1" source="aSBIJGF0lnvLBux2EHk--5">
          <mxGeometry relative="1" as="geometry">
            <mxPoint x="300" y="450" as="targetPoint" />
          </mxGeometry>
        </mxCell>
        <mxCell id="aSBIJGF0lnvLBux2EHk--5" value="Nombre" style="ellipse;whiteSpace=wrap;html=1;" vertex="1" parent="1">
          <mxGeometry x="314" y="210" width="100" height="60" as="geometry" />
        </mxCell>
        <mxCell id="aSBIJGF0lnvLBux2EHk--14" style="rounded=0;orthogonalLoop=1;jettySize=auto;html=1;exitX=0;exitY=0;exitDx=0;exitDy=0;entryX=0.5;entryY=1;entryDx=0;entryDy=0;endArrow=none;endFill=0;" edge="1" parent="1" source="aSBIJGF0lnvLBux2EHk--6" target="aSBIJGF0lnvLBux2EHk--1">
          <mxGeometry relative="1" as="geometry" />
        </mxCell>
        <mxCell id="aSBIJGF0lnvLBux2EHk--6" value="Email" style="ellipse;whiteSpace=wrap;html=1;" vertex="1" parent="1">
          <mxGeometry x="360" y="570" width="100" height="60" as="geometry" />
        </mxCell>
        <mxCell id="aSBIJGF0lnvLBux2EHk--16" style="rounded=0;orthogonalLoop=1;jettySize=auto;html=1;exitX=1;exitY=0;exitDx=0;exitDy=0;endArrow=none;endFill=0;" edge="1" parent="1" source="aSBIJGF0lnvLBux2EHk--7">
          <mxGeometry relative="1" as="geometry">
            <mxPoint x="300" y="510" as="targetPoint" />
          </mxGeometry>
        </mxCell>
        <mxCell id="aSBIJGF0lnvLBux2EHk--7" value="Fotos" style="ellipse;whiteSpace=wrap;html=1;" vertex="1" parent="1">
          <mxGeometry x="140" y="570" width="100" height="60" as="geometry" />
        </mxCell>
        <mxCell id="aSBIJGF0lnvLBux2EHk--15" style="rounded=0;orthogonalLoop=1;jettySize=auto;html=1;exitX=0.5;exitY=0;exitDx=0;exitDy=0;endArrow=none;endFill=0;" edge="1" parent="1" source="aSBIJGF0lnvLBux2EHk--9">
          <mxGeometry relative="1" as="geometry">
            <mxPoint x="300" y="510" as="targetPoint" />
          </mxGeometry>
        </mxCell>
        <mxCell id="aSBIJGF0lnvLBux2EHk--9" value="Contraseña" style="ellipse;whiteSpace=wrap;html=1;" vertex="1" parent="1">
          <mxGeometry x="250" y="620" width="100" height="60" as="geometry" />
        </mxCell>
        <mxCell id="aSBIJGF0lnvLBux2EHk--17" value="Preferencias" style="rounded=0;whiteSpace=wrap;html=1;" vertex="1" parent="1">
          <mxGeometry x="680" y="450" width="120" height="60" as="geometry" />
        </mxCell>
        <mxCell id="aSBIJGF0lnvLBux2EHk--18" style="rounded=0;orthogonalLoop=1;jettySize=auto;html=1;exitX=1;exitY=1;exitDx=0;exitDy=0;endArrow=none;endFill=0;" edge="1" parent="1" source="aSBIJGF0lnvLBux2EHk--19">
          <mxGeometry relative="1" as="geometry">
            <mxPoint x="740" y="450" as="targetPoint" />
          </mxGeometry>
        </mxCell>
        <mxCell id="aSBIJGF0lnvLBux2EHk--19" value="Id_Preferencias" style="ellipse;whiteSpace=wrap;html=1;" vertex="1" parent="1">
          <mxGeometry x="580" y="330" width="100" height="60" as="geometry" />
        </mxCell>
        <mxCell id="aSBIJGF0lnvLBux2EHk--20" style="rounded=0;orthogonalLoop=1;jettySize=auto;html=1;exitX=0;exitY=1;exitDx=0;exitDy=0;entryX=0.5;entryY=0;entryDx=0;entryDy=0;endArrow=none;endFill=0;" edge="1" parent="1" source="aSBIJGF0lnvLBux2EHk--21" target="aSBIJGF0lnvLBux2EHk--17">
          <mxGeometry relative="1" as="geometry" />
        </mxCell>
        <mxCell id="aSBIJGF0lnvLBux2EHk--21" value="Género" style="ellipse;whiteSpace=wrap;html=1;" vertex="1" parent="1">
          <mxGeometry x="800" y="330" width="100" height="60" as="geometry" />
        </mxCell>
        <mxCell id="aSBIJGF0lnvLBux2EHk--22" style="rounded=0;orthogonalLoop=1;jettySize=auto;html=1;exitX=1;exitY=1;exitDx=0;exitDy=0;entryX=0.5;entryY=0;entryDx=0;entryDy=0;endArrow=none;endFill=0;" edge="1" parent="1" source="aSBIJGF0lnvLBux2EHk--23" target="aSBIJGF0lnvLBux2EHk--17">
          <mxGeometry relative="1" as="geometry" />
        </mxCell>
        <mxCell id="aSBIJGF0lnvLBux2EHk--23" value="Edad_min" style="ellipse;whiteSpace=wrap;html=1;" vertex="1" parent="1">
          <mxGeometry x="620" y="210" width="100" height="60" as="geometry" />
        </mxCell>
        <mxCell id="aSBIJGF0lnvLBux2EHk--24" style="rounded=0;orthogonalLoop=1;jettySize=auto;html=1;exitX=0;exitY=1;exitDx=0;exitDy=0;endArrow=none;endFill=0;" edge="1" parent="1" source="aSBIJGF0lnvLBux2EHk--25">
          <mxGeometry relative="1" as="geometry">
            <mxPoint x="740" y="450" as="targetPoint" />
          </mxGeometry>
        </mxCell>
        <mxCell id="aSBIJGF0lnvLBux2EHk--25" value="Edad_Max" style="ellipse;whiteSpace=wrap;html=1;" vertex="1" parent="1">
          <mxGeometry x="754" y="210" width="100" height="60" as="geometry" />
        </mxCell>
        <mxCell id="aSBIJGF0lnvLBux2EHk--33" style="rounded=0;orthogonalLoop=1;jettySize=auto;html=1;exitX=1;exitY=0;exitDx=0;exitDy=0;endArrow=none;endFill=0;" edge="1" parent="1" source="aSBIJGF0lnvLBux2EHk--29">
          <mxGeometry relative="1" as="geometry">
            <mxPoint x="740" y="510" as="targetPoint" />
          </mxGeometry>
        </mxCell>
        <mxCell id="aSBIJGF0lnvLBux2EHk--29" value="ubicacion" style="ellipse;whiteSpace=wrap;html=1;" vertex="1" parent="1">
          <mxGeometry x="580" y="570" width="100" height="60" as="geometry" />
        </mxCell>
        <mxCell id="aSBIJGF0lnvLBux2EHk--32" style="rounded=0;orthogonalLoop=1;jettySize=auto;html=1;exitX=0;exitY=0;exitDx=0;exitDy=0;entryX=0.5;entryY=1;entryDx=0;entryDy=0;endArrow=none;endFill=0;" edge="1" parent="1" source="aSBIJGF0lnvLBux2EHk--31" target="aSBIJGF0lnvLBux2EHk--17">
          <mxGeometry relative="1" as="geometry" />
        </mxCell>
        <mxCell id="aSBIJGF0lnvLBux2EHk--31" value="Id_usuario" style="ellipse;whiteSpace=wrap;html=1;" vertex="1" parent="1">
          <mxGeometry x="800" y="570" width="100" height="60" as="geometry" />
        </mxCell>
        <mxCell id="aSBIJGF0lnvLBux2EHk--35" value="1" style="text;html=1;align=center;verticalAlign=middle;resizable=0;points=[];autosize=1;strokeColor=none;fillColor=none;" vertex="1" parent="1">
          <mxGeometry x="365" y="448" width="30" height="30" as="geometry" />
        </mxCell>
        <mxCell id="aSBIJGF0lnvLBux2EHk--36" value="1" style="text;html=1;align=center;verticalAlign=middle;resizable=0;points=[];autosize=1;strokeColor=none;fillColor=none;" vertex="1" parent="1">
          <mxGeometry x="635" y="448" width="30" height="30" as="geometry" />
        </mxCell>
        <mxCell id="aSBIJGF0lnvLBux2EHk--71" style="rounded=0;orthogonalLoop=1;jettySize=auto;html=1;exitX=1;exitY=0.5;exitDx=0;exitDy=0;entryX=0;entryY=0.5;entryDx=0;entryDy=0;endArrow=none;endFill=0;" edge="1" parent="1" source="aSBIJGF0lnvLBux2EHk--37" target="aSBIJGF0lnvLBux2EHk--1">
          <mxGeometry relative="1" as="geometry" />
        </mxCell>
        <mxCell id="aSBIJGF0lnvLBux2EHk--37" value="Like" style="rounded=0;whiteSpace=wrap;html=1;" vertex="1" parent="1">
          <mxGeometry x="-430" y="270" width="120" height="60" as="geometry" />
        </mxCell>
        <mxCell id="aSBIJGF0lnvLBux2EHk--38" style="rounded=0;orthogonalLoop=1;jettySize=auto;html=1;exitX=1;exitY=1;exitDx=0;exitDy=0;endArrow=none;endFill=0;" edge="1" parent="1" source="aSBIJGF0lnvLBux2EHk--39">
          <mxGeometry relative="1" as="geometry">
            <mxPoint x="-370" y="270" as="targetPoint" />
          </mxGeometry>
        </mxCell>
        <mxCell id="aSBIJGF0lnvLBux2EHk--39" value="Id_Objetivo" style="ellipse;whiteSpace=wrap;html=1;" vertex="1" parent="1">
          <mxGeometry x="-530" y="150" width="100" height="60" as="geometry" />
        </mxCell>
        <mxCell id="aSBIJGF0lnvLBux2EHk--51" style="rounded=0;orthogonalLoop=1;jettySize=auto;html=1;exitX=0;exitY=1;exitDx=0;exitDy=0;endArrow=none;endFill=0;" edge="1" parent="1" source="aSBIJGF0lnvLBux2EHk--43">
          <mxGeometry relative="1" as="geometry">
            <mxPoint x="-370" y="270.0000000000002" as="targetPoint" />
          </mxGeometry>
        </mxCell>
        <mxCell id="aSBIJGF0lnvLBux2EHk--43" value="Id_like" style="ellipse;whiteSpace=wrap;html=1;" vertex="1" parent="1">
          <mxGeometry x="-310" y="150" width="100" height="60" as="geometry" />
        </mxCell>
        <mxCell id="aSBIJGF0lnvLBux2EHk--46" style="rounded=0;orthogonalLoop=1;jettySize=auto;html=1;exitX=1;exitY=0;exitDx=0;exitDy=0;endArrow=none;endFill=0;" edge="1" parent="1" source="aSBIJGF0lnvLBux2EHk--47">
          <mxGeometry relative="1" as="geometry">
            <mxPoint x="-370" y="330" as="targetPoint" />
          </mxGeometry>
        </mxCell>
        <mxCell id="aSBIJGF0lnvLBux2EHk--47" value="Estado" style="ellipse;whiteSpace=wrap;html=1;" vertex="1" parent="1">
          <mxGeometry x="-530" y="390" width="100" height="60" as="geometry" />
        </mxCell>
        <mxCell id="aSBIJGF0lnvLBux2EHk--48" style="rounded=0;orthogonalLoop=1;jettySize=auto;html=1;exitX=0;exitY=0;exitDx=0;exitDy=0;entryX=0.5;entryY=1;entryDx=0;entryDy=0;endArrow=none;endFill=0;" edge="1" parent="1" source="aSBIJGF0lnvLBux2EHk--49" target="aSBIJGF0lnvLBux2EHk--37">
          <mxGeometry relative="1" as="geometry" />
        </mxCell>
        <mxCell id="aSBIJGF0lnvLBux2EHk--49" value="Id_usuario" style="ellipse;whiteSpace=wrap;html=1;" vertex="1" parent="1">
          <mxGeometry x="-310" y="390" width="100" height="60" as="geometry" />
        </mxCell>
        <mxCell id="aSBIJGF0lnvLBux2EHk--70" style="rounded=0;orthogonalLoop=1;jettySize=auto;html=1;exitX=1;exitY=0.5;exitDx=0;exitDy=0;entryX=0;entryY=0.5;entryDx=0;entryDy=0;endArrow=none;endFill=0;" edge="1" parent="1" source="aSBIJGF0lnvLBux2EHk--61" target="aSBIJGF0lnvLBux2EHk--1">
          <mxGeometry relative="1" as="geometry" />
        </mxCell>
        <mxCell id="aSBIJGF0lnvLBux2EHk--61" value="Match" style="rounded=0;whiteSpace=wrap;html=1;" vertex="1" parent="1">
          <mxGeometry x="-430" y="630" width="120" height="60" as="geometry" />
        </mxCell>
        <mxCell id="aSBIJGF0lnvLBux2EHk--62" style="rounded=0;orthogonalLoop=1;jettySize=auto;html=1;exitX=1;exitY=1;exitDx=0;exitDy=0;endArrow=none;endFill=0;" edge="1" parent="1" source="aSBIJGF0lnvLBux2EHk--63">
          <mxGeometry relative="1" as="geometry">
            <mxPoint x="-370" y="630" as="targetPoint" />
          </mxGeometry>
        </mxCell>
        <mxCell id="aSBIJGF0lnvLBux2EHk--63" value="Id_Match" style="ellipse;whiteSpace=wrap;html=1;" vertex="1" parent="1">
          <mxGeometry x="-530" y="510" width="100" height="60" as="geometry" />
        </mxCell>
        <mxCell id="aSBIJGF0lnvLBux2EHk--64" style="rounded=0;orthogonalLoop=1;jettySize=auto;html=1;exitX=0;exitY=1;exitDx=0;exitDy=0;endArrow=none;endFill=0;" edge="1" parent="1" source="aSBIJGF0lnvLBux2EHk--65">
          <mxGeometry relative="1" as="geometry">
            <mxPoint x="-370" y="630.0000000000002" as="targetPoint" />
          </mxGeometry>
        </mxCell>
        <mxCell id="aSBIJGF0lnvLBux2EHk--65" value="Id_Usuario2" style="ellipse;whiteSpace=wrap;html=1;" vertex="1" parent="1">
          <mxGeometry x="-310" y="510" width="100" height="60" as="geometry" />
        </mxCell>
        <mxCell id="aSBIJGF0lnvLBux2EHk--66" style="rounded=0;orthogonalLoop=1;jettySize=auto;html=1;exitX=1;exitY=0;exitDx=0;exitDy=0;endArrow=none;endFill=0;" edge="1" parent="1" source="aSBIJGF0lnvLBux2EHk--67">
          <mxGeometry relative="1" as="geometry">
            <mxPoint x="-370" y="690" as="targetPoint" />
          </mxGeometry>
        </mxCell>
        <mxCell id="aSBIJGF0lnvLBux2EHk--67" value="Fecha" style="ellipse;whiteSpace=wrap;html=1;" vertex="1" parent="1">
          <mxGeometry x="-530" y="750" width="100" height="60" as="geometry" />
        </mxCell>
        <mxCell id="aSBIJGF0lnvLBux2EHk--68" style="rounded=0;orthogonalLoop=1;jettySize=auto;html=1;exitX=0;exitY=0;exitDx=0;exitDy=0;entryX=0.5;entryY=1;entryDx=0;entryDy=0;endArrow=none;endFill=0;" edge="1" parent="1" source="aSBIJGF0lnvLBux2EHk--69" target="aSBIJGF0lnvLBux2EHk--61">
          <mxGeometry relative="1" as="geometry" />
        </mxCell>
        <mxCell id="aSBIJGF0lnvLBux2EHk--69" value="Id_usuario1" style="ellipse;whiteSpace=wrap;html=1;" vertex="1" parent="1">
          <mxGeometry x="-310" y="750" width="100" height="60" as="geometry" />
        </mxCell>
        <mxCell id="aSBIJGF0lnvLBux2EHk--72" value="1" style="text;html=1;align=center;verticalAlign=middle;resizable=0;points=[];autosize=1;strokeColor=none;fillColor=none;" vertex="1" parent="1">
          <mxGeometry x="-295" y="268" width="30" height="30" as="geometry" />
        </mxCell>
        <mxCell id="aSBIJGF0lnvLBux2EHk--73" value="N" style="text;html=1;align=center;verticalAlign=middle;resizable=0;points=[];autosize=1;strokeColor=none;fillColor=none;" vertex="1" parent="1">
          <mxGeometry x="185" y="418" width="30" height="30" as="geometry" />
        </mxCell>
        <mxCell id="aSBIJGF0lnvLBux2EHk--74" value="N" style="text;html=1;align=center;verticalAlign=middle;resizable=0;points=[];autosize=1;strokeColor=none;fillColor=none;" vertex="1" parent="1">
          <mxGeometry x="-295" y="608" width="30" height="30" as="geometry" />
        </mxCell>
        <mxCell id="aSBIJGF0lnvLBux2EHk--75" value="N" style="text;html=1;align=center;verticalAlign=middle;resizable=0;points=[];autosize=1;strokeColor=none;fillColor=none;" vertex="1" parent="1">
          <mxGeometry x="135" y="478" width="30" height="30" as="geometry" />
        </mxCell>
      </root>
    </mxGraphModel>
  </diagram>
</mxfile>
